# xmcd
#
# Track frame offsets:
#	150
#	38295
#	66077
#	91237
#	122717
#	156975
#	183800
#	207520
#	231405
#	250750
#	296397
#
# Disc length: 4665 seconds
#
# Revision: 2
# Processed by: cddbd v1.5.2PL0 Copyright (c) Steve Scherf et al.
# Submitted via: audiograbber 1.83.01
#
DISCID=9012370b
DTITLE=Gino Soccio - The Best Of... Gino Soccio
DYEAR=1994
DGENRE=Disco
TTITLE0=Dancer
TTITLE1=Try It Out
TTITLE2=The Visitors (Remix)
TTITLE3=Turn It Around (Extended Mix)
TTITLE4=It's Allright
TTITLE5=Human Nature
TTITLE6=S-Beat
TTITLE7=Hold Tight
TTITLE8=Les Visiteurs
TTITLE9=Remember (Remix)
TTITLE10=Megamix (Edited Version)
EXTD=Produced and Arranged By Gino Soccio
EXTT0=© 1979
EXTT1=© 1981
EXTT2=© 1979
EXTT3=© 1984
EXTT4=© 1982
EXTT5=© 1985
EXTT6=© 1980
EXTT7=© 1979
EXTT8=
EXTT9=© 1982
EXTT10=a. S-Beat © 1980\nb. Try It Out © 1981\nc. Dancer © 1979\nd. It's Alrigh
EXTT10=t © 1982\ne. Remember © 1982\nf. Turn It Around © 1984\ng. Human Nature 
EXTT10=© 1985
PLAYORDER=
